<svg width="179" height="71" viewBox="0 0 179 71" fill="none" xmlns="http://www.w3.org/2000/svg">
<g clip-path="url(#clip0_1_188)">
<path d="M52.8317 29.0506C55.3821 27.7004 58.5326 25.7501 59.2827 25L60.6329 28.7506L58.6826 29.8007C58.6826 29.8007 54.4819 32.5012 53.8818 32.5012C53.2817 32.5012 52.8317 29.0506 52.8317 29.0506Z" fill="#4579B2"/>
<path d="M55.9822 35.2466L54.647 32.2011L60.933 28.4506L61.6831 32.2011L57.3024 34.9466C57.3024 34.9466 55.5321 35.9517 55.082 35.9517C54.632 35.9517 55.9822 35.2466 55.9822 35.2466Z" fill="#E8E8E8"/>
<path opacity="0.25" d="M53.1768 28.8706L56.1322 35.5766L57.6775 34.7665C57.6775 34.7665 55.2921 33.0112 54.2869 28.2555L53.1768 28.8706Z" fill="white"/>
<path d="M58.5326 38.9522C58.5326 38.9522 52.6817 41.9526 50.7314 41.9526C48.7811 41.9526 50.7314 40.1524 50.7314 40.1524L55.9822 35.6517L58.2326 34.4515L58.5326 38.9522Z" fill="#2D5B87"/>
<path d="M49.9213 41.6826L48.421 37.932L55.5321 36.8519L56.8823 37.452V37.902V37.977V38.0521C56.8823 38.0521 55.5321 38.9522 53.7318 39.8523C52.3216 40.5574 50.5814 40.7525 49.9213 41.6826Z" fill="#324A63"/>
<path d="M53.8818 30.5508L55.8321 34.9015L43 39L41 32.5L51.5 28.5L53.8818 30.5508Z" fill="white"/>
<path d="M47.2809 34.1514C48.0266 34.1514 48.6311 33.5469 48.6311 32.8012C48.6311 32.0555 48.0266 31.451 47.2809 31.451C46.5352 31.451 45.9307 32.0555 45.9307 32.8012C45.9307 33.5469 46.5352 34.1514 47.2809 34.1514Z" fill="#E0C136"/>
<path d="M53.1318 28.7506C53.3118 29.2006 53.8819 30.5508 53.8819 30.5508C51.0314 28.0004 41.2799 33.7013 41.2799 33.7013L40.2297 30.4008C40.2297 30.4008 50.4313 24.3999 52.5317 27.7004C52.6817 27.9254 53.0117 28.4655 53.1318 28.7506Z" fill="#5592BF"/>
<path d="M43.8303 41.5026C43.8303 41.5026 46.3207 40.0473 48.6311 38.9522C51.4815 37.6019 57.0324 36.5518 56.8823 38.052C56.8823 38.052 57.1824 37.902 56.8823 37.3019L55.8322 34.9015C55.8322 34.9015 54.632 32.0511 48.7811 34.4515C43.6803 36.5518 42.1801 37.752 42.1801 37.752L43.8303 41.5026Z" fill="#5592C0"/>
<path d="M49.8462 42.0576L49.8312 42.0126C49.8312 42.0276 49.8462 42.0576 49.8462 42.0576Z" fill="white"/>
<path d="M27.1027 44.068C21.3868 44.068 15.7009 44.068 10 44.068C10 43.2728 10 42.4927 10 41.6676C10.5101 41.6676 11.0202 41.6676 11.5452 41.6676C12.3554 41.6676 12.7154 41.3225 12.7154 40.4974C12.7154 36.8518 12.7154 33.2063 12.7154 29.5607C12.7154 28.7656 12.3554 28.4205 11.5752 28.4055C11.0652 28.4055 10.5401 28.4055 10 28.4055C10 27.5954 10 26.8003 10 26.0051C13.5256 26.0051 17.0511 26.0051 20.5917 26.0051C20.5917 26.8003 20.5917 27.5804 20.5917 28.4055C20.0516 28.4055 19.5115 28.4055 18.9714 28.4055C18.2213 28.4055 17.8612 28.7656 17.8612 29.5157C17.8612 33.5063 17.8612 37.4819 17.8612 41.4725C17.8612 41.5176 17.8612 41.5626 17.8762 41.6076C17.9062 41.6226 17.9212 41.6526 17.9362 41.6526C19.1514 41.6376 20.3816 41.7276 21.5818 41.6076C23.2921 41.4425 24.1622 40.5424 24.4323 38.8471C24.5523 38.127 24.5823 37.3919 24.6573 36.6418C25.4524 36.6418 26.2775 36.6418 27.1327 36.6418C27.1027 39.1172 27.1027 41.5776 27.1027 44.068Z" fill="white"/>
<path d="M94.2081 30.4609C94.2081 29.7407 94.2081 29.0656 94.2081 28.3455C94.3432 28.3455 94.4782 28.3455 94.6132 28.3455C97.7637 28.3455 100.929 28.3455 104.08 28.3455C104.74 28.3455 106.24 28.4205 107.29 28.7356C109.18 29.3057 110.126 30.4008 110.291 32.3511C110.471 34.5565 109.661 36.0867 107.485 36.8218C107.08 36.9569 106.645 37.0769 106.225 37.1219C105.325 37.2269 104.41 37.2869 103.495 37.3319C102.699 37.3619 101.904 37.3319 101.094 37.3319C101.079 37.4519 101.064 37.542 101.064 37.632C101.064 38.7571 101.064 39.8973 101.064 41.0225C101.064 41.6826 101.349 41.9827 101.994 41.9977C102.504 42.0127 103 41.9977 103.54 41.9977C103.54 42.7028 103.54 43.3629 103.54 44.068C100.449 44.068 97.3436 44.068 94.2381 44.068C94.2381 43.3929 94.2381 42.7178 94.2381 41.9977C94.6282 41.9977 95.0333 41.9977 95.4233 41.9977C96.3235 41.9977 96.5935 41.7276 96.5935 40.8425C96.5935 37.767 96.5935 34.7065 96.5935 31.631C96.5935 30.7009 96.3385 30.4609 95.4083 30.4609C95.0183 30.4609 94.6282 30.4609 94.2081 30.4609ZM101.079 35.1866C101.214 35.1866 101.304 35.2016 101.409 35.2016C102.099 35.2016 102.804 35.2016 103.495 35.1716C103.795 35.1566 104.11 35.0666 104.395 34.9616C105.37 34.5865 105.91 33.7314 105.835 32.6662C105.76 31.616 105.115 30.8059 104.125 30.5509C104.005 30.5209 103.885 30.4909 103.765 30.4909C102.864 30.4909 101.979 30.4909 101.064 30.4909C101.079 32.0511 101.079 33.5963 101.079 35.1866Z" fill="white"/>
<path d="M133.889 41.9827C133.889 42.6878 133.889 43.3629 133.889 44.053C130.829 44.053 127.798 44.053 124.723 44.053C124.723 43.3779 124.723 42.7028 124.723 41.9827C125.143 41.9827 125.563 41.9827 125.983 41.9827C126.793 41.9827 127.078 41.6976 127.078 40.9025C127.078 37.557 127.078 34.2114 127.078 30.8659C127.078 30.7459 127.078 30.6259 127.078 30.4609C126.028 30.4759 125.068 30.6259 124.393 31.496C123.733 32.3212 123.703 33.3413 123.658 34.3615C122.923 34.3615 122.203 34.3615 121.467 34.3615C121.467 32.3662 121.467 30.3708 121.467 28.3605C126.703 28.3605 131.939 28.3605 137.175 28.3605C137.175 30.3708 137.175 32.3512 137.175 34.3615C136.455 34.3615 135.735 34.3615 135 34.3615C134.97 33.9564 134.94 33.5363 134.88 33.1313C134.654 31.346 133.364 30.3108 131.549 30.5059C131.549 30.6109 131.549 30.7309 131.549 30.8509C131.549 34.2265 131.549 37.587 131.549 40.9625C131.549 41.6976 131.834 41.9977 132.569 42.0127C133.004 41.9977 133.439 41.9827 133.889 41.9827Z" fill="white"/>
<path d="M155.118 30.4609C155.118 29.7408 155.118 29.0656 155.118 28.3605C158.178 28.3605 161.239 28.3605 164.314 28.3605C164.314 29.0506 164.314 29.7257 164.314 30.4609C163.834 30.4609 163.369 30.4609 162.904 30.4609C162.274 30.4609 161.959 30.7609 161.959 31.376C161.959 34.8265 161.959 38.2921 161.959 41.7426C161.959 41.8176 161.974 41.8776 161.989 42.0427C163.219 41.9827 164.449 41.9977 165.649 41.8326C166.759 41.6826 167.375 40.8575 167.585 39.7923C167.735 39.0872 167.78 38.3671 167.87 37.617C168.545 37.617 169.25 37.617 170 37.617C170 39.7473 170 41.8776 170 44.038C165.049 44.038 160.098 44.038 155.133 44.038C155.133 43.3779 155.133 42.7028 155.133 41.9827C155.538 41.9827 155.928 41.9827 156.333 41.9827C157.203 41.9827 157.488 41.7126 157.488 40.8425C157.488 37.767 157.488 34.6765 157.488 31.601C157.488 30.7009 157.218 30.4459 156.318 30.4459C155.928 30.4609 155.538 30.4609 155.118 30.4609Z" fill="white"/>
<path d="M120.192 30.4609C119.637 30.4609 119.127 30.4609 118.602 30.4609C118.047 30.4759 117.867 30.6409 117.822 31.181C117.807 31.301 117.807 31.421 117.807 31.541C117.807 34.6465 117.807 37.752 117.807 40.8575C117.807 40.9325 117.807 41.0075 117.807 41.0675C117.852 41.6826 118.122 41.9527 118.737 41.9827C119.187 41.9977 119.652 41.9827 120.132 41.9827C120.132 42.6878 120.132 43.3629 120.132 44.053C117.087 44.053 114.041 44.053 110.996 44.053C110.996 43.3629 110.996 42.6878 110.996 41.9827C111.431 41.9827 111.851 41.9827 112.271 41.9827C113.066 41.9677 113.351 41.6826 113.351 40.8875C113.351 37.677 113.351 34.4665 113.351 31.241C113.351 30.7009 113.141 30.4759 112.586 30.4609C112.061 30.4459 111.536 30.4609 110.966 30.4609C110.966 29.7558 110.966 29.0806 110.966 28.3605C114.041 28.3605 117.102 28.3605 120.192 28.3605C120.192 29.0506 120.192 29.7257 120.192 30.4609Z" fill="white"/>
<path d="M45.2256 41.9826C44.6405 41.9826 44.2354 41.7426 44.0104 41.2025C43.9053 40.9625 43.8003 40.7224 43.7103 40.4674C43.3203 39.3272 42.9302 38.172 42.5401 37.0169C41.775 34.7365 41.0099 32.4561 40.2598 30.1608L39.6597 28.3155H34.8289L34.0638 30.7759C33.0887 33.7163 32.1135 36.6718 31.1233 39.6123C30.9433 40.1373 30.7633 40.6474 30.5533 41.1725C30.3282 41.7126 29.9082 41.9976 29.3081 41.9826C29.053 41.9826 28.783 41.9826 28.5129 41.9826C28.5129 42.7027 28.5129 43.3778 28.5129 44.053C30.8383 44.053 33.1487 44.053 35.459 44.053C35.459 43.3628 35.459 42.6877 35.459 41.9826C35.249 41.9826 35.054 41.9976 34.8739 41.9826C34.4839 41.9526 34.1088 41.9226 33.7338 41.8626C33.4337 41.8176 33.2687 41.6226 33.3587 41.2925C33.5537 40.6174 33.7338 39.9273 33.9438 39.2522C33.9738 39.1622 34.1538 39.0872 34.2738 39.0872C35.144 39.0722 36.0141 39.0722 36.8692 39.0722C37.4993 39.0722 38.1444 39.0722 38.8045 39.0722C38.9846 39.7323 39.1796 40.3624 39.3446 40.9925C39.5247 41.7426 39.3896 41.9076 38.6095 41.9526C38.2195 41.9676 37.8294 41.9526 37.4243 41.9526C37.4243 42.7027 37.4243 43.3778 37.4243 44.053C40.3048 44.053 43.1402 44.053 46.0207 44.053C46.0207 43.3478 46.0207 42.6727 46.0207 41.9676C45.7356 41.9826 45.4806 41.9826 45.2256 41.9826ZM34.6639 36.9568C35.219 35.2616 35.7741 33.6113 36.3142 31.9611C36.3442 31.9611 36.3592 31.9611 36.3892 31.9611C36.9443 33.6113 37.4993 35.2766 38.0544 36.9568C36.9143 36.9568 35.8191 36.9568 34.6639 36.9568Z" fill="white"/>
<path d="M152.957 41.9826C152.372 41.9826 151.967 41.7426 151.742 41.2025C151.637 40.9625 151.532 40.7224 151.442 40.4674C151.052 39.3272 150.662 38.172 150.272 37.0169C149.507 34.7365 148.742 32.4561 147.992 30.1608L147.391 28.3155H142.561L141.796 30.7759C140.82 33.7163 139.845 36.6718 138.855 39.6123C138.675 40.1373 138.495 40.6474 138.285 41.1725C138.06 41.7126 137.64 41.9976 137.04 41.9826C136.785 41.9826 136.515 41.9826 136.245 41.9826C136.245 42.7027 136.245 43.3778 136.245 44.053C138.57 44.053 140.88 44.053 143.191 44.053C143.191 43.3628 143.191 42.6877 143.191 41.9826C142.981 41.9826 142.786 41.9976 142.606 41.9826C142.216 41.9526 141.841 41.9226 141.466 41.8626C141.166 41.8176 141 41.6226 141.091 41.2925C141.286 40.6174 141.466 39.9273 141.676 39.2522C141.706 39.1622 141.886 39.0872 142.006 39.0872C142.876 39.0722 143.746 39.0722 144.601 39.0722C145.231 39.0722 145.876 39.0722 146.536 39.0722C146.716 39.7323 146.911 40.3624 147.076 40.9925C147.256 41.7426 147.121 41.9076 146.341 41.9526C145.951 41.9676 145.561 41.9526 145.156 41.9526C145.156 42.7027 145.156 43.3778 145.156 44.053C148.037 44.053 150.872 44.053 153.752 44.053C153.752 43.3478 153.752 42.6727 153.752 41.9676C153.452 41.9826 153.197 41.9826 152.957 41.9826ZM142.396 36.9568C142.951 35.2616 143.506 33.6113 144.046 31.9611C144.076 31.9611 144.091 31.9611 144.121 31.9611C144.676 33.6113 145.231 35.2766 145.786 36.9568C144.646 36.9568 143.536 36.9568 142.396 36.9568Z" fill="white"/>
<path d="M91.8678 41.9826C91.2827 41.9826 90.8776 41.7426 90.6526 41.2025C90.5476 40.9625 90.4425 40.7224 90.3525 40.4674C89.9625 39.3272 89.5724 38.172 89.1824 37.0169C88.4172 34.7365 87.6521 32.4561 86.902 30.1608L86.3019 28.3155H81.4862L80.721 30.7759C79.7459 33.7163 78.7707 36.6718 77.7806 39.6123C77.6005 40.1373 77.4205 40.6474 77.2105 41.1725C76.9855 41.7126 76.5654 41.9976 75.9653 41.9826C75.7103 41.9826 75.4402 41.9826 75.1702 41.9826C75.1702 42.7027 75.1702 43.3778 75.1702 44.053C77.4955 44.053 79.8059 44.053 82.1163 44.053C82.1163 43.3628 82.1163 42.6877 82.1163 41.9826C81.9062 41.9826 81.7112 41.9976 81.5312 41.9826C81.1411 41.9526 80.766 41.9226 80.391 41.8626C80.0909 41.8176 79.9259 41.6226 80.0159 41.2925C80.211 40.6174 80.391 39.9273 80.601 39.2522C80.631 39.1622 80.811 39.0872 80.9311 39.0872C81.8012 39.0722 82.6713 39.0722 83.5265 39.0722C84.1566 39.0722 84.8017 39.0722 85.4618 39.0722C85.6418 39.7323 85.8368 40.3624 86.0019 40.9925C86.1819 41.7426 86.0469 41.9076 85.2667 41.9526C84.8767 41.9676 84.4866 41.9526 84.0816 41.9526C84.0816 42.7027 84.0816 43.3778 84.0816 44.053C86.962 44.053 89.7974 44.053 92.6779 44.053C92.6779 43.3478 92.6779 42.6727 92.6779 41.9676C92.3779 41.9826 92.1228 41.9826 91.8678 41.9826ZM81.3061 36.9568C81.8612 35.2616 82.4163 33.6113 82.9564 31.9611C82.9864 31.9611 83.0014 31.9611 83.0314 31.9611C83.5865 33.6113 84.1416 35.2766 84.6967 36.9568C83.5565 36.9568 82.4613 36.9568 81.3061 36.9568Z" fill="white"/>
<path d="M72.5748 37.1969C72.5298 37.542 72.5148 37.872 72.4548 38.1871C72.1247 40.3774 70.6695 41.8776 68.5242 42.0577C66.1388 42.2377 64.4735 41.2775 63.8134 38.9972C63.5434 38.067 63.4234 37.0919 63.3483 36.1317C63.2133 34.3915 63.3033 32.6662 63.8734 31.0009C64.2785 29.7858 64.9836 28.8106 66.2138 28.3155C68.8392 27.2654 71.5996 28.6456 72.3047 31.376C72.4548 31.9461 72.4998 32.5462 72.6048 33.1613C73.4149 33.1613 74.225 33.1613 75.0652 33.1613C75.0652 31.9161 75.0652 30.6859 75.0652 29.4407C75.0652 28.2105 75.0652 26.9803 75.0652 25.7351L72.6648 25.7201L72.0797 27.1903C71.7497 26.9803 71.4796 26.7703 71.1646 26.6203C69.7543 25.9151 68.2991 25.4951 66.7989 25.4351V25.4201C66.7989 25.4201 58.4126 24.805 57.3924 33.7464C57.3924 33.7914 57.3024 34.7815 57.3024 34.8415C56.8523 44.9381 66.6489 44.6381 66.6489 44.6381C67.8641 44.6681 69.0942 44.5031 70.3244 44.158C72.5898 43.5279 74.075 42.0427 74.7351 39.7623C74.9752 38.9222 75.0952 38.052 75.0802 37.1819C74.225 37.1969 73.3999 37.1969 72.5748 37.1969Z" fill="white"/>
</g>
<defs>
<clipPath id="clip0_1_188">
<rect width="160" height="19.6381" fill="white" transform="translate(10 25)"/>
</clipPath>
</defs>
</svg>
